<svg width="20" height="21" viewBox="0 0 20 21" fill="none" xmlns="http://www.w3.org/2000/svg">
<g clip-path="url(#clip0_6314_4213)">
<g clip-path="url(#clip1_6314_4213)">
<path d="M18.4124 14.5677L16.3811 13.3949L18.1415 12.3569C18.4661 12.1654 18.5742 11.747 18.3827 11.4223C18.1912 11.0977 17.7729 10.9897 17.4481 11.1811L15.0232 12.611L11.3669 10.5L15.0225 8.38931L17.4482 9.819C17.557 9.88316 17.6764 9.91355 17.7941 9.91355C18.0278 9.91355 18.2554 9.79343 18.3827 9.57749C18.5741 9.2528 18.466 8.83439 18.1413 8.64292L16.3806 7.60526L18.4124 6.43218C18.7389 6.24372 18.8507 5.8263 18.6622 5.49989C18.4738 5.17338 18.0564 5.06154 17.73 5.25009L15.6986 6.42299L15.6801 4.37904C15.6767 4.00212 15.3675 3.69755 14.9915 3.70273C14.6146 3.7061 14.3117 4.01441 14.3152 4.39133L14.3406 7.20695L10.6845 9.31787V5.09639L13.1357 3.71101C13.4639 3.52556 13.5795 3.10923 13.3941 2.781C13.2086 2.45285 12.7922 2.3371 12.4641 2.52265L10.6845 3.52847V1.1825C10.6845 0.805577 10.3789 0.5 10.002 0.5C9.62507 0.5 9.31949 0.805577 9.31949 1.1825V3.52847L7.5399 2.52274C7.21157 2.33719 6.79543 2.45285 6.60988 2.78109C6.42443 3.10923 6.54009 3.52565 6.86823 3.71111L9.3194 5.09648V9.31787L5.66331 7.20695L5.68869 4.39133C5.69215 4.01441 5.38931 3.7061 5.01238 3.70273C5.01029 3.70273 5.00829 3.70273 5.00611 3.70273C4.6321 3.70273 4.32716 4.00422 4.32379 4.37913L4.30532 6.42299L2.27393 5.25009C1.94752 5.06154 1.5301 5.17347 1.34164 5.49989C1.15318 5.8263 1.26502 6.24372 1.59143 6.43218L3.62318 7.60526L1.86225 8.64311C1.53756 8.83448 1.42945 9.25289 1.62083 9.57767C1.74814 9.79361 1.97573 9.91373 2.2095 9.91373C2.32726 9.91373 2.44656 9.88325 2.55539 9.81919L4.98135 8.38949L8.63708 10.5001L4.98072 12.6111L2.55539 11.181C2.23089 10.9896 1.81229 11.0975 1.62083 11.4222C1.42936 11.7469 1.53738 12.1653 1.86207 12.3567L3.62273 13.3948L1.59134 14.5676C1.26493 14.7561 1.15309 15.1735 1.34155 15.4999C1.46795 15.7189 1.69736 15.8413 1.93323 15.8413C2.04898 15.8413 2.16637 15.8118 2.27384 15.7497L4.30523 14.5768L4.3237 16.6209C4.32707 16.9957 4.63201 17.2973 5.00602 17.2973C5.00811 17.2973 5.0102 17.2973 5.01229 17.2972C5.38921 17.2938 5.69206 16.9855 5.6886 16.6086L5.66321 13.7929L9.3194 11.6819V15.9035L6.86823 17.2889C6.54009 17.4744 6.42443 17.8907 6.60988 18.2189C6.73537 18.441 6.9666 18.5657 7.20466 18.5657C7.31841 18.5657 7.43379 18.5372 7.5399 18.4773L9.31949 17.4715V19.8175C9.31949 20.1944 9.62507 20.5 10.002 20.5C10.3789 20.5 10.6845 20.1944 10.6845 19.8175V17.4715L12.4641 18.4773C12.5702 18.5372 12.6855 18.5657 12.7993 18.5657C13.0374 18.5657 13.2686 18.441 13.3941 18.2189C13.5795 17.8908 13.4639 17.4744 13.1357 17.2889L10.6845 15.9035V11.682L14.3406 13.7929L14.3146 16.6085C14.311 16.9854 14.6138 17.2938 14.9907 17.2973C14.9929 17.2974 14.995 17.2974 14.9971 17.2974C15.3711 17.2974 15.676 16.9959 15.6795 16.6211L15.6984 14.5768L17.73 15.7498C17.8375 15.8119 17.9549 15.8414 18.0707 15.8414C18.3065 15.8414 18.5359 15.7189 18.6623 15.5C18.8508 15.1736 18.739 14.7562 18.4124 14.5677Z" fill="black"/>
</g>
</g>
<defs>
<clipPath id="clip0_6314_4213">
<rect width="20" height="20" fill="white" transform="translate(0 0.5)"/>
</clipPath>
<clipPath id="clip1_6314_4213">
<rect width="20" height="20" fill="white" transform="translate(0 0.5)"/>
</clipPath>
</defs>
</svg>
