<svg width="20" height="21" viewBox="0 0 20 21" fill="none" xmlns="http://www.w3.org/2000/svg">
<g clip-path="url(#clip0_6314_4248)">
<g clip-path="url(#clip1_6314_4248)">
<g clip-path="url(#clip2_6314_4248)">
<path d="M18.7355 19.818L17.1633 10.3778C16.9364 9.01812 15.7709 8.03125 14.3919 8.03125C13.3307 8.03125 12.4674 7.16793 12.4674 6.10676V2.96875C12.4674 1.6075 11.36 0.5 9.99868 0.5C8.63739 0.5 7.52993 1.6075 7.52993 2.96875V6.10676C7.52993 7.16793 6.66661 8.03125 5.60544 8.03125C4.22649 8.03125 3.06094 9.01813 2.83391 10.3786L1.26184 19.818C1.2336 19.9879 1.28153 20.1615 1.39286 20.2929C1.50423 20.4243 1.66766 20.5 1.83985 20.5H18.1575C18.3297 20.5 18.4932 20.4243 18.6045 20.2929C18.7158 20.1615 18.7638 19.9879 18.7355 19.818ZM3.98993 10.5707C4.12219 9.77828 4.80161 9.20312 5.60544 9.20312C7.31278 9.20312 8.7018 7.8141 8.7018 6.10676V2.96875C8.7018 2.25363 9.2836 1.67188 9.99868 1.67188C10.7138 1.67188 11.2956 2.25367 11.2956 2.96875V6.10676C11.2956 7.8141 12.6846 9.20312 14.3919 9.20312C15.1957 9.20312 15.8752 9.77828 16.0073 10.57C16.0537 10.8503 16.1026 11.1451 16.1517 11.4414C15.394 10.86 14.4619 10.5417 13.5039 10.5417H6.49352C5.53548 10.5417 4.60337 10.86 3.84567 11.4414C3.89473 11.1454 3.94356 10.8508 3.98993 10.5707ZM3.35926 14.37C3.61466 12.8307 4.93278 11.7136 6.49348 11.7136H13.5038C15.0645 11.7136 16.3827 12.8307 16.6383 14.3714C16.7929 15.2898 16.9475 16.2145 17.0483 16.8177H2.94899C3.04977 16.2143 3.20454 15.2893 3.35926 14.37ZM2.53122 19.3281L2.75372 17.9896H17.2436L17.4661 19.3281H2.53122Z" fill="black"/>
</g>
</g>
</g>
<defs>
<clipPath id="clip0_6314_4248">
<rect width="20" height="20" fill="white" transform="translate(0 0.5)"/>
</clipPath>
<clipPath id="clip1_6314_4248">
<rect width="20" height="20" fill="white" transform="translate(0 0.5)"/>
</clipPath>
<clipPath id="clip2_6314_4248">
<rect width="20" height="20" fill="white" transform="translate(0 0.5)"/>
</clipPath>
</defs>
</svg>
