<svg width="20" height="21" viewBox="0 0 20 21" fill="none" xmlns="http://www.w3.org/2000/svg">
<g clip-path="url(#clip0_6314_4161)">
<g clip-path="url(#clip1_6314_4161)">
<path d="M16.4808 2.8C14.7408 1.32 12.4408 0.5 10.0008 0.5C7.56078 0.5 5.26078 1.32 3.52078 2.8C1.76078 4.32 0.800781 6.34 0.800781 8.48C0.800781 10.26 1.46078 11.42 2.56078 12.72C3.28078 13.58 3.64078 14.2 3.64078 15.3V18.42C3.64078 19.56 4.58078 20.5 5.72078 20.5H14.2808C15.4208 20.5 16.3608 19.56 16.3608 18.42V15.3C16.3608 14.2 16.7208 13.58 17.4408 12.72C18.5408 11.42 19.2008 10.26 19.2008 8.48C19.2008 6.34 18.2408 4.32 16.4808 2.8ZM16.5408 11.94C15.6608 12.98 15.1608 13.86 15.1608 15.3V18.42C15.1608 18.92 14.7608 19.32 14.2808 19.32H5.72078C5.24078 19.32 4.84078 18.92 4.84078 18.42V15.3C4.84078 13.86 4.34078 12.98 3.46078 11.94C2.50078 10.8 1.98078 9.92 1.98078 8.48C1.98078 4.74 5.58078 1.68 10.0008 1.68C14.4208 1.68 18.0208 4.74 18.0208 8.48C18.0208 9.92 17.5008 10.8 16.5408 11.94ZM6.94078 4.84C5.72078 4.84 4.72078 5.82 4.72078 7.04C4.72078 8.28 5.72078 9.26 6.94078 9.26C8.16078 9.26 9.16078 8.28 9.16078 7.04C9.16078 5.8 8.16078 4.84 6.94078 4.84ZM6.94078 8.08C6.38078 8.08 5.92078 7.62 5.92078 7.04C5.92078 6.48 6.38078 6.02 6.94078 6.02C7.50078 6.02 7.96078 6.48 7.96078 7.04C7.96078 7.62 7.50078 8.08 6.94078 8.08ZM13.4208 4.74C13.1008 4.74 12.8008 5 12.8208 5.34C12.8408 5.66 13.0808 5.92 13.4208 5.92C13.7208 5.92 14.0208 5.66 14.0008 5.34C14.0008 5 13.7408 4.74 13.4208 4.74ZM8.04078 10.96C7.72078 10.96 7.42078 11.24 7.44078 11.56C7.46078 11.88 7.70078 12.16 8.04078 12.16C8.36078 12.16 8.64078 11.88 8.64078 11.56C8.62078 11.24 8.38078 10.96 8.04078 10.96ZM10.0008 14.04C8.88078 14.04 7.96078 14.96 7.96078 16.08C7.96078 17.2 8.88078 18.12 10.0008 18.12C11.1208 18.12 12.0408 17.2 12.0408 16.08C12.0408 14.96 11.1208 14.04 10.0008 14.04ZM10.0008 16.94C9.52078 16.94 9.14078 16.56 9.14078 16.08C9.14078 15.6 9.52078 15.22 10.0008 15.22C10.4808 15.22 10.8608 15.6 10.8608 16.08C10.8608 16.56 10.4808 16.94 10.0008 16.94ZM13.1608 7.8C12.0608 7.8 11.1608 8.7 11.1608 9.8C11.1608 10.9 12.0608 11.8 13.1608 11.8C14.2608 11.8 15.1608 10.92 15.1608 9.8C15.1608 8.68 14.2608 7.8 13.1608 7.8ZM13.1608 10.62C12.7208 10.62 12.3408 10.26 12.3408 9.8C12.3408 9.36 12.7208 9 13.1608 9C13.6008 9 13.9608 9.36 13.9608 9.8C13.9608 10.26 13.6008 10.62 13.1608 10.62Z" fill="black"/>
</g>
</g>
<defs>
<clipPath id="clip0_6314_4161">
<rect width="20" height="20" fill="white" transform="translate(0 0.5)"/>
</clipPath>
<clipPath id="clip1_6314_4161">
<rect width="20" height="20" fill="white" transform="translate(0 0.5)"/>
</clipPath>
</defs>
</svg>
