<svg width="20" height="21" viewBox="0 0 20 21" fill="none" xmlns="http://www.w3.org/2000/svg">
<g clip-path="url(#clip0_6314_4263)">
<path d="M8.56862 11.5898C8.56862 10.5252 7.70248 9.65906 6.63784 9.65906C5.57321 9.65906 4.70703 10.5252 4.70703 11.5898H5.8789C5.8789 11.1714 6.21938 10.8309 6.63784 10.8309C7.05631 10.8309 7.39675 11.1714 7.39675 11.5898H8.56862Z" fill="black"/>
<path d="M13.3605 9.65906C12.2958 9.65906 11.4297 10.5252 11.4297 11.5898H12.6016C12.6016 11.1714 12.942 10.8309 13.3605 10.8309C13.7789 10.8309 14.1194 11.1714 14.1194 11.5898H15.2913C15.2913 10.5252 14.4251 9.65906 13.3605 9.65906Z" fill="black"/>
<path d="M9.99807 15.0188C9.25719 15.0188 8.56252 14.6215 8.18504 13.9819L7.17578 14.5774C7.76298 15.5725 8.84442 16.1906 9.99803 16.1906C11.1516 16.1906 12.2331 15.5725 12.8203 14.5774L11.811 13.9818C11.4336 14.6214 10.7389 15.0188 9.99807 15.0188Z" fill="black"/>
<path d="M19.2375 9.51438C18.8643 9.14161 18.3957 8.89512 17.887 8.7986C16.7884 5.40378 13.6015 3.0664 10 3.0664H9.60715C8.66374 3.0664 7.89622 2.29884 7.89622 1.35547H6.72435C6.72435 1.99563 6.93435 2.5875 7.2887 3.0664H6.91743C5.97402 3.0664 5.2065 2.29884 5.2065 1.35547H4.03463C4.03463 2.62872 4.86464 3.71107 6.01173 4.09171C4.19752 5.08911 2.77553 6.75142 2.11307 8.7986C1.60437 8.89512 1.13559 9.14169 0.762064 9.51481C0.270636 10.0068 0 10.6604 0 11.3555C0 12.042 0.264825 12.6896 0.74574 13.1792C1.12159 13.5619 1.59626 13.8144 2.11307 13.9124C3.21158 17.3072 6.39842 19.6445 10 19.6445C13.6016 19.6445 16.7884 17.3072 17.8869 13.9124C18.4037 13.8144 18.8784 13.5619 19.2543 13.1792C19.7352 12.6896 20 12.042 20 11.3555C20 10.6604 19.7294 10.0068 19.2375 9.51438ZM17.4253 12.786L16.9855 12.7943L16.8707 13.2189C16.0342 16.3122 13.2089 18.4726 9.99996 18.4726C6.79107 18.4726 3.96578 16.3122 3.12929 13.2189L3.01446 12.7943L2.57473 12.786C1.80117 12.7714 1.17183 12.1297 1.17183 11.3555C1.17183 10.9732 1.32073 10.6136 1.59061 10.3434C1.85382 10.0805 2.20331 9.93185 2.57462 9.9249L3.01442 9.91664L3.12925 9.49201C3.96578 6.39873 6.79111 4.23831 10 4.23831C11.0591 4.23831 11.9207 5.09994 11.9207 6.15904C11.9207 7.21815 11.0591 8.07982 10 8.07982C8.9409 8.07982 8.07926 7.21819 8.07926 6.15908H6.90739C6.90739 7.86436 8.29472 9.25169 10 9.25169C11.7053 9.25169 13.0926 7.86436 13.0926 6.15908C13.0926 5.67378 12.98 5.21445 12.7799 4.80527C14.7453 5.64129 16.289 7.34095 16.8707 9.49205L16.9855 9.91668L17.4253 9.92494C17.7967 9.93189 18.1461 10.0806 18.4089 10.343C18.6793 10.6137 18.8282 10.9732 18.8282 11.3555C18.8281 12.1297 18.1988 12.7714 17.4253 12.786Z" fill="black"/>
</g>
<defs>
<clipPath id="clip0_6314_4263">
<rect width="20" height="20" fill="white" transform="translate(0 0.5)"/>
</clipPath>
</defs>
</svg>
