<svg width="20" height="21" viewBox="0 0 20 21" fill="none" xmlns="http://www.w3.org/2000/svg">
<g clip-path="url(#clip0_6314_4149)">
<g clip-path="url(#clip1_6314_4149)">
<path d="M10.6149 3.53675C11.5477 3.8509 12.3201 4.78428 12.6975 5.31264C13.3094 6.16938 13.8049 7.21153 14.1304 8.32645C14.2045 8.5804 14.4366 8.7452 14.6884 8.7452C14.7423 8.7452 14.7972 8.73761 14.8516 8.72175C15.16 8.63172 15.3369 8.30882 15.2469 8.00049C14.8853 6.76162 14.331 5.5984 13.644 4.63655C13.0833 3.85146 12.167 2.83211 10.9861 2.4344C10.6818 2.33185 10.3518 2.49553 10.2493 2.79991C10.1468 3.10434 10.3105 3.43421 10.6149 3.53675Z" fill="black"/>
<path d="M18.4303 9.21758C18.3841 8.91707 18.114 8.70318 17.8111 8.72621C17.6783 8.73636 17.5586 8.7907 17.4661 8.87412L17.2956 9.02147C16.9538 7.05981 16.1723 5.13402 15.083 3.60897C13.6511 1.60413 11.8452 0.5 9.99798 0.5C8.15092 0.5 6.34512 1.60413 4.91317 3.60906C3.82388 5.13421 3.04242 7.05995 2.70086 9.02152L2.53714 8.87998C2.4438 8.79312 2.32153 8.7364 2.18535 8.72598C1.88227 8.70318 1.61242 8.91707 1.56622 9.21758C1.45227 9.95922 1.39453 10.6966 1.39453 11.4092C1.39453 14.1866 2.26672 16.5175 3.91679 18.1501C5.44841 19.6655 7.60828 20.5 9.99845 20.5C12.3884 20.5 14.5482 19.6655 16.0797 18.1501C17.7298 16.5175 18.6019 14.1866 18.6019 11.4092C18.602 10.6966 18.5442 9.95922 18.4303 9.21758ZM5.85975 4.28509C7.06731 2.59431 8.537 1.66317 9.99798 1.66317C11.4592 1.66317 12.9289 2.59431 14.1365 4.28505C15.257 5.85379 16.0195 7.89408 16.2509 9.92451L15.3183 10.7305L13.038 8.7599C12.8196 8.57119 12.4957 8.57119 12.2773 8.75999L9.99798 10.7304L7.71822 8.75995C7.49987 8.57114 7.17599 8.57114 6.9576 8.75995L4.67779 10.7304L3.74567 9.9247C3.97681 7.89431 4.73925 5.85393 5.85975 4.28509ZM15.2617 17.3232C13.9493 18.6217 12.0802 19.3368 9.9985 19.3368C7.91661 19.3368 6.04735 18.6217 4.73492 17.3232C3.3106 15.9141 2.5577 13.8691 2.5577 11.4092C2.5577 11.0996 2.56961 10.7846 2.59339 10.4661L4.29743 11.9391C4.51578 12.1279 4.83961 12.1279 5.05805 11.9391L7.33786 9.96857L9.61767 11.9391C9.83607 12.1279 10.1599 12.1279 10.3783 11.9391L12.6577 9.96857L14.938 11.9392C15.1564 12.1279 15.4801 12.1279 15.6985 11.9392L17.4031 10.4659C17.4268 10.7845 17.4388 11.0995 17.4388 11.4091C17.4388 13.869 16.686 15.914 15.2617 17.3232Z" fill="black"/>
</g>
</g>
<defs>
<clipPath id="clip0_6314_4149">
<rect width="20" height="20" fill="white" transform="translate(0 0.5)"/>
</clipPath>
<clipPath id="clip1_6314_4149">
<rect width="20" height="20" fill="white" transform="translate(0 0.5)"/>
</clipPath>
</defs>
</svg>
